PathFileType	4	(X/Y/Z)	Patient4_TMGait_0pt6_01_left_36.trc.trc
DataRate	CameraRate	NumFrames	NumMarkers	Units	OrigDataRate	OrigDataStartFrame	OrigNumFrames
80.924855491330	80.924855491330	6	33	mm	80.924855491330	71	       141
Frame#	Time	Sacral			L.Shoulder			Chest			R.Shoulder			Neck			R.ASIS			L.ASIS			R.Thigh.Superior			R.Thigh.Lateral			R.Thigh.Inferior			R.Patella			L.Thigh.Superior			L.Thigh.Lateral			L.Thigh.Inferior			L.Patella			L.Shank.Superior			L.Shank.Lateral			L.Shank.Inferior			R.Shank.Superior			R.Shank.Lateral			R.Shank.Inferior			R.Heel			R.Midfoot.Superior			R.Midfoot.Lateral			R.Toe			L.Heel			L.Midfoot.Lateral			L.Midfoot.Superior			L.Toe			L.Elbow			L.Wrist			R.Elbow			R.Wrist			
		X1	Y1	Z1	X2	Y2	Z2	X3	Y3	Z3	X4	Y4	Z4	X5	Y5	Z5	X6	Y6	Z6	X7	Y7	Z7	X8	Y8	Z8	X9	Y9	Z9	X10	Y10	Z10	X11	Y11	Z11	X12	Y12	Z12	X13	Y13	Z13	X14	Y14	Z14	X15	Y15	Z15	X16	Y16	Z16	X17	Y17	Z17	X18	Y18	Z18	X19	Y19	Z19	X20	Y20	Z20	X21	Y21	Z21	X22	Y22	Z22	X23	Y23	Z23	X24	Y24	Z24	X25	Y25	Z25	X26	Y26	Z26	X27	Y27	Z27	X28	Y28	Z28	X29	Y29	Z29	X30	Y30	Z30	X31	Y31	Z31	X32	Y32	Z32	X33	Y33	Z33	

71	44.685000000000	730.811190790536	995.531181232337	413.746515194362	913.896658514559	1428.507613839509	247.969098451019	999.417127633423	1362.576360666108	418.983417475414	895.350241231197	1433.028217916080	581.956031136809	878.440870578996	1488.940936575543	398.883604640089	948.813065520601	939.806202932291	552.640457999067	957.880748884773	956.425886977428	276.927361310842	1029.761418738025	768.511033522574	525.232083324176	986.686801874114	643.470129215341	592.971771094687	1079.183709729656	610.806065631160	515.977134745112	1114.084609138650	526.523830230008	531.897638121564	959.992813665401	727.822210238434	309.658189436141	845.930750520925	631.886817849036	244.173457346626	900.661258459374	540.151904483650	314.675423655947	884.076372755771	473.569122018363	326.023818863480	852.882315562005	407.471896473220	317.846455122639	754.135021659693	300.830108104906	265.794230155728	788.035349759530	188.696722537285	345.662515295032	1097.148796636016	435.867065878847	538.614830012857	1040.624939768431	321.052561744794	596.265530325038	1110.127416974693	235.662895484707	544.656142391278	1017.200962993503	48.622132204260	508.588839984260	1176.384764970274	123.527324075568	554.353293517097	1099.027637863155	46.334741212533	584.741512207662	1300.990163813277	89.200671982536	584.872443752230	647.636473167621	38.752809223578	388.648952344308	722.823765520254	34.738466249658	309.418585342516	805.773549559772	95.164033211926	337.092322626127	934.560299200229	42.701706051372	311.773798608556	975.461165420627	1088.415907533537	111.136009631591	1228.090329775280	1036.591167802254	124.032292429279	746.800894593594	1126.354342223559	694.501554200796	704.369406449546	871.762969659299	727.378649047947	
72	44.697357142857	732.175596168562	993.800339794275	415.139022220177	913.910535745371	1427.464065515861	250.020330784588	999.275753054701	1361.667499038882	421.092788924922	894.575639807663	1431.569369440075	583.922594594434	878.000905946666	1487.572758877654	400.948305055541	950.304801599371	938.312719169885	554.204131472539	959.255814539992	955.110442173132	278.465161616515	1030.589359996411	765.346510096042	527.194441110079	984.561567956228	640.246820445285	593.229468649680	1077.407944284489	607.231599947316	517.022648676949	1110.536469395393	522.965891329962	531.780468368225	960.257390789633	726.312422149471	310.593504476172	845.388981713968	630.980831485105	245.381415590811	899.647582166162	538.708668877505	315.626197526401	882.661635765709	471.741976630489	326.918072059780	850.262167652689	405.928922168449	318.782480079646	749.937886957370	300.871148205377	266.475748782499	782.099337768660	188.016340522806	345.907661154143	1094.053956708744	432.252094648270	538.412421391525	1037.497595627908	317.141930218075	595.228364274180	1107.469954581255	232.197828959350	543.611624780832	1014.778267408364	46.116393950380	506.676593423355	1174.048404108050	120.138703198706	552.834445213757	1096.106922387414	43.967111999029	583.348294604025	1298.275027451668	85.153264644512	584.252551235850	640.166863846248	38.865048249693	388.508542736315	715.422686451417	34.719574813925	309.416396024065	798.478971612842	95.104353740889	337.102757713681	927.207434565584	42.304482666955	311.776865850784	975.808937799240	1087.630686201682	112.914824805217	1228.844738873256	1039.549645538721	127.625354629945	744.477978649179	1125.877760709326	695.713085305074	701.324374170279	871.298340659074	728.135133216926	
73	44.709714285714	733.689826705025	992.096077854745	416.845433198528	913.757125332513	1426.414391469244	252.166002213798	999.179415214257	1360.841621624458	423.234288017026	893.930305652218	1430.114089303210	586.023041555777	877.545706959214	1486.230466115831	403.125356144039	952.063657718758	936.837986575989	555.837162281562	960.740560638542	953.801968922537	280.093590416805	1031.705678872366	762.170480441410	529.134633058381	982.683546234113	637.172133701293	593.440270524079	1075.809867334428	603.761156138900	517.942650836805	1107.066350868395	519.301355492409	531.571098175762	960.948398455213	724.839011639318	311.587819254287	845.222413553103	630.031904961611	246.792671606304	899.190423006853	537.222892818608	316.695855513479	881.900333625946	469.766204174725	327.900035512508	848.091873903900	404.279737217159	319.840511674129	746.026595415471	301.001626086649	267.261934031847	776.307205453958	187.359821000469	346.160744977125	1090.751056032680	428.517411966636	538.142326740845	1033.784605244388	313.346335621392	594.227490046993	1103.771356217721	228.562874907973	542.513163148226	1010.348249057333	44.069066966715	504.922338527784	1170.164477641988	116.415944344319	551.232739377871	1091.217662634274	41.829563268495	582.101946982614	1293.838834246791	80.095588761665	583.494016735316	632.676960611913	39.133456081699	388.324624712677	708.029122254979	34.739159252731	309.398852772251	791.237813641304	95.073827799240	337.065161132085	919.887622208906	41.877543601557	311.757977735233	975.978137068098	1086.787071961927	114.782585799352	1229.222023823513	1041.466970862890	131.327228967679	743.039467594194	1124.848602817018	696.891943111938	699.755588629161	870.158637423133	728.715851246221	
74	44.722071428571	735.306746519699	990.500311092837	418.833637606987	913.468416636203	1425.418141258140	254.400328559041	999.150676297200	1360.140703916464	425.406425273642	893.449297257046	1428.726417540304	588.255104668528	877.114359012077	1484.983232392170	405.408008701773	954.019159904689	935.461872127979	557.546522184431	962.271574671092	952.549412727158	281.823859117724	1033.014884582616	759.088166521415	531.036948780174	981.058833576426	634.370829392915	593.663312358452	1074.368452901055	600.520949285189	518.752398862958	1103.718409186844	515.712164977325	531.310952723718	962.028933676392	723.463918202385	312.670106452238	845.471499349178	629.061332044061	248.409518476201	899.364613486212	535.737231342316	317.896901851733	881.880570074358	467.664131759974	328.946654307898	846.437396074565	402.560332322311	320.998735963062	742.455330138849	301.281598460300	268.146372251662	770.702161889539	186.783300097575	346.406132440113	1087.363860217443	424.852333715796	537.839831577036	1029.755814200556	309.795819894029	593.351238254922	1099.352825232194	224.940421510960	541.409638745327	1004.404628994295	42.476440857707	503.406633714612	1165.138230326623	112.604204496867	549.622402423063	1084.890855828488	39.994815326095	581.042968481153	1288.156186748709	74.458165338500	582.590434592708	625.182498850512	39.677711602440	388.091587987034	700.652083303966	34.848161175293	309.359381811804	784.092634902166	95.086448745910	336.957114697702	912.607552405626	41.428971057723	311.713846513895	975.936602610749	1085.913838911841	116.760454063295	1229.217493297222	1042.328723448899	135.113696689858	742.543978400348	1123.307222782883	698.046458323531	699.679416128495	868.391940562398	729.144201688997	
75	44.734428571429	736.971042897310	989.102036557671	421.062861235724	913.088501432350	1424.548099030245	256.716158846680	999.209777917633	1359.611655700286	427.608849411465	893.166284466480	1427.481577217092	590.611152381023	876.746067365259	1483.909023323003	407.786268310505	956.088611376357	934.275179679493	559.342668532687	963.780467641796	951.417083922510	283.666855260808	1034.423261422347	756.231327440988	532.888841062196	979.710351000341	631.972762885338	593.962833354491	1073.069737074519	597.644325917067	519.469035989913	1100.542340680300	512.385754794512	531.046228434578	963.458753631910	722.262105709777	313.879318587619	846.198684545192	628.092004322846	250.227914698335	900.274592903529	534.303732630813	319.237496868166	882.714357279458	465.468039266510	330.024227366815	845.393860629903	400.812809393566	322.223136920238	739.306457324625	301.785471261256	269.118110738776	765.355506736857	186.357270879118	346.620177470475	1084.011151856740	421.447587703154	537.546322095195	1025.659671967343	306.632198005035	592.682952182355	1094.507670182029	221.523119990192	540.355180416658	997.431062693016	41.322879440379	502.181525274599	1159.331514307218	108.959539859086	548.097229276448	1077.627819299112	38.519273400616	580.197866904646	1281.652924742720	68.712463033274	581.587115485151	617.718409507311	40.653351208211	387.805053678506	693.309880835867	35.120584555354	309.291547251539	777.104636126817	95.159999294429	336.753355528664	905.372592250346	40.967731947237	311.644519506802	975.647464987173	1085.052106217522	118.874534756147	1228.807778309487	1042.131225129934	138.961054192195	743.044664093025	1121.322382095213	699.193723185527	701.127191957738	866.072899355255	729.445167693263	
76	44.746785714286	738.624435313090	987.987431463665	423.489528553984	912.667955283042	1423.882794761216	259.104888322761	999.370989531545	1359.300890103628	429.841129347272	893.109735384309	1426.459499005811	593.077357063698	876.474055780384	1483.085409836911	410.246862217979	958.184687701686	933.368652513894	561.238687143566	965.200725523526	950.480144819126	285.631687727109	1035.845379598713	753.742204747447	534.680617746814	978.668477299756	630.093827200821	594.399783492171	1071.903846322725	595.251454153975	520.112878078720	1097.578355330415	509.486148106499	530.826198873809	965.202788047101	721.313783588508	315.258077900604	847.487550601966	627.145405621478	252.233706278193	902.051108369437	532.978387619958	320.714856459136	884.534014814182	463.218809058156	331.085616337055	845.084653592768	399.082415895592	323.465709537544	736.691367324257	302.597594575031	270.159942797209	760.368190223095	186.164054405184	346.771249617842	1080.783865643991	418.467154940564	537.306669472432	1021.684412615280	303.983049046246	592.290642463664	1089.464319292509	218.482251508577	539.404702241357	989.850173650113	40.571900469588	501.268376539454	1153.030080610526	105.706942848921	546.753040415799	1069.851427671783	37.426192258029	579.576958940769	1274.670261223445	63.301536940844	580.565694169997	610.343529726376	42.247888486490	387.461620558481	686.032855130940	35.655840227050	309.189426889166	770.352911365932	95.316832410496	336.428232329296	898.185010440934	40.502285310741	311.554230711277	975.072136750344	1084.253386686262	121.153750363221	1227.953316005753	1040.880034340516	142.846746873849	744.580241494596	1118.987508404088	700.357307349533	704.142104490537	863.299932617374	729.644658031514	
